<svg width="32" height="32" viewBox="0 0 32 32" fill="none" xmlns="http://www.w3.org/2000/svg">
<mask id="mask0_2419_7339" style="mask-type:alpha" maskUnits="userSpaceOnUse" x="0" y="0" width="32" height="32">
<rect width="32" height="32" fill="#004577"/>
</mask>
<g mask="url(#mask0_2419_7339)">
<path d="M16.3667 20.7001C17.9222 20.7001 19.2444 20.2001 20.3333 19.2001C21.4222 18.2001 21.9667 16.989 21.9667 15.5667C21.9667 14.3001 21.5611 13.2279 20.75 12.3501C19.9389 11.4723 18.9556 11.0334 17.8 11.0334C16.7556 11.0334 15.8722 11.3667 15.15 12.0334C14.4278 12.7001 14.0667 13.5223 14.0667 14.5001C14.0667 14.9223 14.15 15.3334 14.3167 15.7334C14.4833 16.1334 14.7222 16.5001 15.0333 16.8334L16.9333 14.9334C16.8667 14.889 16.8167 14.8334 16.7833 14.7667C16.75 14.7001 16.7333 14.6223 16.7333 14.5334C16.7333 14.289 16.8333 14.0945 17.0333 13.9501C17.2333 13.8056 17.4889 13.7334 17.8 13.7334C18.2444 13.7334 18.6111 13.9167 18.9 14.2834C19.1889 14.6501 19.3333 15.089 19.3333 15.6001C19.3333 16.289 19.05 16.8723 18.4833 17.3501C17.9167 17.8279 17.2222 18.0667 16.4 18.0667C15.3556 18.0667 14.4722 17.6445 13.75 16.8001C13.0278 15.9556 12.6667 14.9223 12.6667 13.7001C12.6667 13.0556 12.7889 12.439 13.0333 11.8501C13.2778 11.2612 13.6222 10.7445 14.0667 10.3001L12.1667 8.40008C11.4556 9.08897 10.9111 9.88897 10.5333 10.8001C10.1556 11.7112 9.96667 12.6667 9.96667 13.6667C9.96667 15.6223 10.5889 17.2834 11.8333 18.6501C13.0778 20.0167 14.5889 20.7001 16.3667 20.7001ZM8 29.3334V23.6001C6.73333 22.4445 5.75 21.0945 5.05 19.5501C4.35 18.0056 4 16.3779 4 14.6667C4 11.3334 5.16667 8.50008 7.5 6.16675C9.83333 3.83341 12.6667 2.66675 16 2.66675C18.7778 2.66675 21.2389 3.48341 23.3833 5.11675C25.5278 6.75008 26.9222 8.87786 27.5667 11.5001L29.3 18.3334C29.4111 18.7556 29.3333 19.139 29.0667 19.4834C28.8 19.8279 28.4444 20.0001 28 20.0001H25.3333V24.0001C25.3333 24.7334 25.0722 25.3612 24.55 25.8834C24.0278 26.4056 23.4 26.6667 22.6667 26.6667H20V29.3334H17.3333V24.0001H22.6667V17.3334H26.2667L25 12.1667C24.4889 10.1445 23.4 8.50008 21.7333 7.23341C20.0667 5.96675 18.1556 5.33341 16 5.33341C13.4222 5.33341 11.2222 6.23341 9.4 8.03341C7.57778 9.83341 6.66667 12.0223 6.66667 14.6001C6.66667 15.9334 6.93889 17.2001 7.48333 18.4001C8.02778 19.6001 8.8 20.6667 9.8 21.6001L10.6667 22.4001V29.3334H8Z" fill="#004577"/>
</g>
</svg>
