<svg width="39" height="38" viewBox="0 0 39 38" fill="none" xmlns="http://www.w3.org/2000/svg">
<path d="M16.5312 0.5H22.0889C22.3388 0.500044 22.5532 0.709968 22.5664 0.945312L22.7783 5.07812C22.7964 5.50271 23.0603 5.89038 23.2695 6.13574C23.385 6.27116 23.5092 6.39257 23.625 6.48926C23.7294 6.57646 23.863 6.6746 23.9971 6.72754C24.1733 6.79704 24.3499 6.7882 24.4834 6.76367C24.6222 6.73817 24.7582 6.68754 24.8818 6.62695C25.1288 6.50584 25.3804 6.32003 25.5918 6.10059L25.5957 6.09668L28.2871 3.24219L28.4062 3.11523L28.4072 3.11426C28.5773 2.93356 28.8836 2.91864 29.0654 3.07227L29.0693 3.0752L33.3271 6.60156L33.3291 6.60352C33.5102 6.75264 33.5429 7.04472 33.4004 7.22656L33.3965 7.23047L30.9268 10.457C30.6594 10.7976 30.6187 11.2758 30.626 11.6016C30.6301 11.7835 30.6506 11.9609 30.6807 12.1133C30.708 12.2516 30.7514 12.4156 30.8242 12.5439L30.832 12.5576C31.0057 12.8428 31.3327 12.9767 31.5762 13.04C31.8498 13.1112 32.1692 13.133 32.4824 13.0938L32.4814 13.0928L36.4805 12.6123L36.4844 12.6113C36.6852 12.5859 36.9009 12.721 36.9814 12.9131L37.0078 12.998L37.9746 18.3936L37.9932 18.499C37.9739 18.6896 37.8322 18.8746 37.6289 18.9258L33.7393 19.7988L33.7334 19.7998C33.4228 19.8736 33.1284 20.0098 32.8965 20.1787C32.6875 20.331 32.4351 20.5796 32.3789 20.9121L32.3779 20.9199L32.377 20.9287C32.3577 21.0714 32.3739 21.2395 32.3975 21.3838C32.4231 21.5407 32.4651 21.7188 32.5244 21.8955C32.5833 22.0711 32.6628 22.2578 32.7656 22.4277C32.8659 22.5933 33.0071 22.7726 33.2012 22.8975L33.2031 22.8984L36.502 24.998L36.5049 25C36.7078 25.1281 36.7745 25.4087 36.6543 25.6123L36.6533 25.6143L33.8701 30.3564C33.7488 30.5616 33.4571 30.6487 33.2354 30.5371L29.7334 28.7744H29.7324C29.5232 28.6692 29.2931 28.641 29.0977 28.6406C28.8963 28.6403 28.692 28.6693 28.5078 28.71C28.3225 28.7509 28.1447 28.806 27.9941 28.8652C27.8553 28.9199 27.701 28.9928 27.5879 29.0811L27.5859 29.083C27.3161 29.2959 27.2158 29.6373 27.1846 29.9043C27.1509 30.1926 27.1812 30.517 27.2793 30.8223V30.8232L28.4131 34.4766L28.415 34.4834C28.4755 34.6694 28.3879 34.8973 28.2061 35.0088L28.1221 35.0488L22.9062 36.9209H22.9053C22.6713 37.0052 22.3941 36.8841 22.2979 36.6641L20.7607 33.0771L20.7588 33.0742L20.6592 32.8691C20.5517 32.6697 20.4223 32.4881 20.2852 32.3418C20.194 32.2445 20.0888 32.1519 19.9727 32.0811C19.8672 32.0168 19.7113 31.947 19.5264 31.9492V31.9473H19.0107V31.9482C18.6766 31.9395 18.3726 32.1066 18.1553 32.2861C17.9192 32.4812 17.7088 32.7502 17.5752 33.0557L17.5742 33.0596L16.0557 36.6064C15.9576 36.8259 15.6756 36.9494 15.4473 36.8672L15.4463 36.8662L14.6357 36.5762L10.2207 34.9941H10.2217C9.98414 34.9086 9.85955 34.6414 9.92871 34.4287L9.93066 34.4229L11.1104 30.623L11.1094 30.6221C11.2408 30.2078 11.1139 29.7398 10.9932 29.4307C10.926 29.2588 10.8455 29.0971 10.7646 28.9619C10.7089 28.8687 10.6411 28.7678 10.5654 28.6826L10.4873 28.6035L10.3857 28.5254C10.1389 28.3656 9.83254 28.3517 9.6123 28.3691C9.39947 28.386 9.17245 28.4394 8.9541 28.5244L8.73926 28.6201L5.17188 30.4199L5.16602 30.4229C4.95525 30.5331 4.66271 30.4506 4.53711 30.2383L1.75488 25.4961L1.75391 25.4941C1.63734 25.2967 1.7028 25.0119 1.90625 24.8799L5.37988 22.6611C5.73945 22.4335 5.95347 22.0144 6.06934 21.7061C6.1326 21.5376 6.17936 21.3687 6.20801 21.2188C6.23363 21.0846 6.25563 20.9147 6.2334 20.7666H6.23242C6.20519 20.5832 6.11556 20.435 6.02734 20.3281C5.93619 20.2177 5.82431 20.1235 5.70898 20.0449C5.47859 19.888 5.18869 19.7622 4.88672 19.6904L4.88184 19.6895L0.875977 18.7822H0.876953C0.622343 18.7217 0.467038 18.4639 0.506836 18.252L0.507812 18.2471L1.46582 12.8486L1.46484 12.8477C1.51019 12.6132 1.75317 12.435 1.99902 12.4658L2.00098 12.4668L6.19238 12.9746V12.9756C6.60642 13.0275 7.03159 12.8542 7.31836 12.6973C7.47339 12.6124 7.61674 12.5167 7.73438 12.4229C7.8394 12.339 7.96484 12.2247 8.04395 12.0967L8.04883 12.0898L8.05273 12.082C8.14297 11.9244 8.16275 11.7548 8.16113 11.6221C8.1594 11.4837 8.13432 11.3432 8.0957 11.2109C8.01882 10.9478 7.87617 10.6678 7.68359 10.4209H7.68457L5.16797 7.13086L5.12109 7.05469C5.03113 6.86841 5.0763 6.62865 5.24121 6.48926L5.24023 6.48828L9.49512 2.97559C9.68977 2.81527 9.98919 2.83604 10.1572 3.01465H10.1582L13.0518 6.08691L13.0557 6.09082C13.3411 6.38715 13.7763 6.52297 14.0957 6.58398C14.2682 6.6169 14.4387 6.6344 14.5889 6.63672C14.7169 6.63869 14.8802 6.62922 15.0215 6.58301L15.0225 6.58496C15.0251 6.58412 15.0276 6.58192 15.0303 6.58105C15.0331 6.58009 15.0363 6.5801 15.0391 6.5791L15.0381 6.57715C15.214 6.5171 15.3407 6.40116 15.4238 6.2998C15.5132 6.19092 15.5835 6.0648 15.6377 5.93945C15.7461 5.68848 15.8153 5.38424 15.832 5.08105V5.08008L16.0537 0.945312C16.0666 0.707473 16.284 0.5 16.5312 0.5ZM19.7686 12.1523C15.6036 11.8778 12.1568 15.272 12.4375 19.3906L12.4775 19.8047C12.8665 22.8341 15.3346 25.2721 18.4053 25.6543C22.8855 26.2113 26.682 22.4832 26.1143 18.042V18.041C25.7372 15.1058 23.4009 12.7266 20.4727 12.2334L20.1875 12.1924L19.7686 12.1523Z" fill="#004577" stroke="#004577"/>
</svg>
