<svg width="72" height="64" viewBox="0 0 72 64" fill="none" xmlns="http://www.w3.org/2000/svg">
<path d="M32.976 1.11389C29.6114 1.98755 27.2973 4.3901 26.8254 7.52071C26.2621 11.2046 28.7284 15.704 32.1843 17.3202C35.214 18.7326 38.2893 18.1502 40.8774 15.6894C41.8366 14.7575 42.1715 14.3061 42.8109 13.0393C44.1507 10.4475 44.379 8.19051 43.5417 5.99181C42.6739 3.7203 41.0297 2.20596 38.4415 1.28862C37.0105 0.79355 34.5289 0.706184 32.976 1.11389ZM36.4472 3.31259C38.5329 3.61837 40.2076 4.73957 40.984 6.34127C41.73 7.87017 41.6082 10.1999 40.6795 11.9618C39.5834 14.0295 37.254 15.6457 35.351 15.6748C33.0369 15.6894 30.5553 13.5489 29.6571 10.7678C28.3326 6.71986 30.7076 3.48732 35.2292 3.16698C35.351 3.16698 35.8991 3.22523 36.4472 3.31259Z" fill="#004577"/>
<path d="M31.8049 18.3821C29.4451 18.5714 26.9787 18.9063 26.248 19.1393C23.3249 20.1003 21.2239 21.8476 19.9908 24.3375C19.0621 26.1868 18.9403 26.7547 18.4074 32.1277C18.2704 33.4527 17.9507 36.1319 17.7071 38.0976C17.4635 40.0634 17.2656 41.7816 17.2656 41.9272C17.2656 42.0728 17.4331 42.3494 17.6462 42.5387C18.1486 43.0338 18.9099 43.0338 19.397 42.5387C19.7015 42.2184 19.7929 41.8107 20.2496 38.1413C20.5236 35.9135 20.8586 32.9139 20.9956 31.4724C21.3001 28.1379 21.5589 26.9585 22.2897 25.5024C23.2792 23.5513 24.7712 22.2262 26.796 21.5127C29.369 20.5808 39.4779 20.4498 43.0708 21.2943C45.796 21.935 47.9274 23.7405 48.8713 26.2305C49.2519 27.2352 49.3889 28.0506 49.8609 32.3461C50.1806 35.3747 51.0332 41.6505 51.155 42.0728C51.292 42.495 51.8553 42.9028 52.2968 42.9028C52.5252 42.9028 52.9058 42.7426 53.1493 42.5533C53.6822 42.1165 53.6822 42.2912 52.9058 36.4959C52.5708 33.9769 52.2207 31.0938 52.1293 30.0891C51.9162 27.7594 51.5203 26.1285 50.7744 24.6433C49.663 22.3718 47.9883 20.7119 45.8112 19.6926C43.7407 18.717 41.7311 18.4404 36.296 18.3676C34.2407 18.353 32.2311 18.353 31.8049 18.3821Z" fill="#004577"/>
<path d="M25.8357 28.6347C25.653 28.7075 25.4246 28.9113 25.3333 29.0715C25.181 29.3481 24.2828 40.1232 24.2676 41.7104C24.2676 42.7297 25.5007 43.2539 26.3229 42.5695L26.7187 42.2491L27.1906 35.8714C27.693 28.9841 27.693 28.9987 26.9014 28.6492C26.4751 28.4599 26.2924 28.4599 25.8357 28.6347Z" fill="#004577"/>
<path d="M43.5259 28.852C43.0387 29.3034 43.0387 29.4635 43.5716 36.5984C43.9826 42.0005 44.0131 42.1753 44.3632 42.5393C44.957 43.1508 46.0531 42.9761 46.3424 42.2335C46.5251 41.7675 45.6573 29.58 45.4137 29.1286C45.0483 28.4443 44.0892 28.3132 43.5259 28.852Z" fill="#004577"/>
<path d="M34.8779 37.2406C34.7256 37.328 33.7208 39.0898 32.6399 41.1575C31.3763 43.5892 30.5694 44.9433 30.4019 44.987C30.2497 45.0307 28.3162 45.3074 26.0935 45.6131C22.2722 46.1373 22.0438 46.1956 21.648 46.5596C20.8106 47.3605 20.8867 47.4769 24.4492 50.7823L27.6768 53.7964L26.9612 57.7861C26.5654 59.9848 26.2457 61.9214 26.2457 62.1107C26.2457 62.5475 26.9003 63.1445 27.4027 63.1445C27.6463 63.1445 29.458 62.3291 31.5894 61.2516C33.6599 60.2032 35.4412 59.3587 35.5325 59.3587C35.6391 59.3587 37.4051 60.2032 39.4756 61.2516C41.6223 62.3291 43.4187 63.1445 43.6623 63.1445C44.1647 63.1445 44.8194 62.5621 44.8194 62.1107C44.8194 61.9214 44.4997 59.9848 44.1038 57.7861L43.3883 53.7818L46.5397 50.8551C48.6559 48.8894 49.7216 47.7973 49.7825 47.5206C49.8891 47.0838 49.5846 46.5014 49.1126 46.2684C48.9756 46.1956 47.103 45.9044 44.9716 45.6131C42.8402 45.3219 40.9372 45.0453 40.7393 45.0016C40.4652 44.9579 40.0085 44.1862 38.4252 41.1575C37.2833 38.9734 36.3242 37.328 36.1567 37.226C35.7761 37.0367 35.228 37.0513 34.8779 37.2406ZM37.0854 43.9969C37.9837 45.7005 38.7144 46.9091 38.9123 47.0401C39.1103 47.1566 40.5261 47.4187 42.079 47.6371C43.6319 47.841 45.0934 48.0448 45.337 48.0885C45.7633 48.1759 45.7176 48.2341 43.2969 50.5493C40.3891 53.3305 40.6022 52.617 41.3787 56.8542C41.7136 58.6889 41.8354 59.6499 41.7136 59.6208C41.6223 59.5917 40.2673 58.9364 38.7144 58.1501C37.1615 57.3784 35.7305 56.7377 35.5325 56.7377C35.3498 56.7377 33.9188 57.3784 32.3507 58.1501C30.7978 58.9364 29.4276 59.5917 29.321 59.6208C29.184 59.6645 29.1535 59.5625 29.2144 59.3296C29.4428 58.3977 30.204 53.8255 30.204 53.3887C30.204 52.9227 29.9757 52.6752 27.7529 50.5347C25.3475 48.2341 25.3018 48.1759 25.7281 48.0885C25.9717 48.0448 27.4332 47.841 28.9861 47.6226C30.539 47.4187 31.9548 47.1566 32.1527 47.0401C32.3659 46.9091 33.0814 45.7151 33.9797 43.9969C34.7865 42.4389 35.4869 41.1575 35.5325 41.1575C35.5782 41.1575 36.2785 42.4389 37.0854 43.9969Z" fill="#004577"/>
<path d="M10.52 43.0941C10.1546 43.2106 9.86536 43.6765 8.60174 46.0937L7.09453 48.9622L3.9431 49.3699C0.319711 49.8504 0 49.996 0 51.0007C0 51.5249 0.121795 51.6705 2.37499 53.7527L4.74999 55.9369L4.23236 58.8491C3.95832 60.4508 3.71473 61.9069 3.71473 62.0961C3.71473 62.5475 4.36938 63.1445 4.87178 63.1445C5.10015 63.1445 6.53123 62.5184 8.05367 61.7612C9.59132 61.0041 10.9158 60.378 11.0224 60.378C11.129 60.378 12.3774 60.9749 13.8237 61.6884C16.6402 63.13 17.0969 63.2756 17.6298 62.9989C18.3758 62.6203 18.391 62.3291 17.782 59.0092L17.2339 55.9369L19.6089 53.7236C21.7403 51.7433 21.9839 51.4666 21.9839 51.0298C21.9839 50.3891 21.6338 49.9377 21.0248 49.8067C20.766 49.7485 19.274 49.5446 17.7211 49.3262L14.9046 48.9476L13.4583 46.2393C12.6666 44.7395 11.9206 43.429 11.8141 43.298C11.5553 43.0067 11.0376 42.9194 10.52 43.0941ZM11.9968 48.8311C12.5296 49.8649 13.0929 50.7968 13.2452 50.9425C13.4431 51.1026 14.2652 51.2774 15.7267 51.4812C16.9447 51.6559 17.9495 51.8161 17.9799 51.8307C18.0104 51.8598 17.2644 52.5878 16.3509 53.4469C14.4174 55.2379 14.5088 54.9467 14.996 57.7133C15.1786 58.7034 15.2852 59.548 15.2395 59.5917C15.2091 59.6353 14.3109 59.2422 13.2756 58.718C12.2251 58.1792 11.2051 57.757 11.0072 57.757C10.8093 57.757 9.78924 58.1792 8.73876 58.7034C7.68828 59.2276 6.79005 59.6499 6.71392 59.6499C6.65303 59.6499 6.6378 59.5043 6.68348 59.315C6.85094 58.587 7.36857 55.6456 7.36857 55.3835C7.36857 55.2088 6.68348 54.4225 5.66345 53.4324C4.71954 52.5296 4.004 51.787 4.06489 51.787C4.68909 51.787 8.41905 51.1463 8.66264 51.0007C8.8301 50.8988 9.40863 49.9377 9.9567 48.8894C10.4896 47.841 10.9615 46.9819 10.9767 46.9819C11.0072 46.9819 11.4639 47.8119 11.9968 48.8311Z" fill="#004577"/>
<path d="M59.7867 43.0213C59.3147 43.0941 59.1929 43.2543 57.6096 46.2393L56.1633 48.9476L52.8901 49.399C49.2971 49.9232 49.084 49.996 49.084 50.9861C49.084 51.3938 49.358 51.7142 51.459 53.709L53.834 55.966L53.2859 59.0383C52.6921 62.2709 52.7074 62.4893 53.3316 62.9552C53.8187 63.3193 54.4429 63.13 57.1224 61.7612C58.6296 61.0041 59.9085 60.378 59.9846 60.3488C60.0607 60.3197 61.4005 60.9458 62.9533 61.7176C64.5062 62.5038 65.9678 63.1445 66.1961 63.1445C66.7442 63.1445 67.3532 62.5475 67.3532 62.0233C67.3532 61.8049 67.1096 60.3343 66.8355 58.7762L66.3179 55.9369L68.6472 53.7964C69.9413 52.5878 71.007 51.4958 71.0679 51.2919C71.1897 50.8114 70.9461 50.2581 70.5198 49.996C70.3219 49.8649 68.7843 49.5883 67.0639 49.3553L63.9734 48.9476L62.4662 46.0937C61.1873 43.6474 60.9133 43.2106 60.5479 43.0941C60.3195 43.0213 59.9694 42.9922 59.7867 43.0213ZM62.4662 51.0589C62.6945 51.1754 66.5158 51.787 67.003 51.787C67.0639 51.787 66.3484 52.5296 65.4045 53.4324C64.4301 54.3788 63.6993 55.2088 63.6993 55.369C63.6993 55.5146 63.8668 56.5339 64.0647 57.6114C64.2626 58.6889 64.4149 59.6062 64.3844 59.6353C64.354 59.6645 63.4557 59.2568 62.4053 58.718C61.3548 58.1938 60.3195 57.757 60.0912 57.757C59.878 57.757 58.8428 58.1792 57.7923 58.718C56.757 59.2422 55.8588 59.6353 55.8284 59.5917C55.7827 59.548 55.8893 58.7034 56.0719 57.7133C56.5591 54.9467 56.6505 55.2234 54.717 53.4324C53.7883 52.5878 53.0575 51.8598 53.088 51.8452C53.1184 51.8161 54.1232 51.6559 55.3412 51.4812C56.8027 51.2774 57.6248 51.1026 57.8227 50.9425C57.975 50.7968 58.5535 49.8504 59.0864 48.802L60.0912 46.9091L61.1264 48.9039C61.7049 50.0106 62.2987 50.9716 62.4662 51.0589Z" fill="#004577"/>
</svg>
